<svg xmlns="http://www.w3.org/2000/svg" version="1.1" xmlns:xlink="http://www.w3.org/1999/xlink" xmlns:svgjs="http://svgjs.dev/svgjs" width="100%" height="100%" viewBox="0 0 1000 600"><rect width="1000" height="600" x="0" y="0" fill="#ffff"/><g><rect width="333.3333333333333" height="333.3333333333333" rx="13.333333333333334" ry="13.333333333333334" y="288.17443245008207" fill="#0a192f" transform="matrix(0.47000924106598846,0,0,0.47000924106598846,0,86.22047984336848)" x="265.95208740234375"/><path d="M471.11667860815237 417.79328883384375L471.11667860815237 417.79328883384375Q471.11667860815237 438.68726039063523 453.84017078358147 447.8868448820583L453.84017078358147 447.8868448820583Q468.21647061594103 453.2818554482149 474.1728117612353 462.35669981094077Q480.0979678743553 471.46272920584096 480.0979678743553 486.0573242634207L480.0979678743553 486.0573242634207Q480.0979678743553 506.48352033759744 467.7486951333263 518.1779074029658Q455.3994223922973 529.8411094361599 430.7008769102393 529.8411094361599L430.7008769102393 529.8411094361599L385.1395449035641 529.8411094361599L385.1395449035641 379.8411046777016L412.7382983778335 379.8411046777016Q425.9919370519176 379.8411046777016 432.0730183259092 380.0905849350961L432.0730183259092 380.0905849350961Q471.11667860815237 381.43154131859166 471.11667860815237 417.79328883384375ZM417.2289430109349 396.0261363761714L406.68840213601624 396.0261363761714L406.68840213601624 440.93258270718593L428.7050348510831 440.93258270718593Q438.5595050181669 440.246511999351 443.9545155843234 434.0718756288365Q449.3495261504801 427.897239258322 449.3495261504801 419.47728057125676Q449.3495261504801 411.05732188419154 447.665534413067 407.0344527337048Q445.98154267565394 402.9803985510438 443.61148023040596 400.7350762344931Q441.2726028173323 398.4897539179423 436.5636629590106 397.36709275966695L436.5636629590106 397.36709275966695Q429.35992052674374 396.0261363761714 417.2289430109349 396.0261363761714L417.2289430109349 396.0261363761714ZM406.68840213601624 511.6602356785338L426.4597125345324 511.6602356785338Q458.330815416683 511.6602356785338 458.330815416683 485.15295833036555L458.330815416683 485.15295833036555Q458.330815416683 471.68102443106113 449.3495261504801 464.72676225618875L449.3495261504801 464.72676225618875Q442.17696875038746 457.5542048560962 423.7466147353669 457.5542048560962L423.7466147353669 457.5542048560962L406.68840213601624 457.5542048560962L406.68840213601624 511.6602356785338Z " fill="#ffffff" transform="matrix(0.47000924106598846,0,0,0.47000924106598846,0,86.22047984336848)"/><path d="M765.2626444906139 419.1096855545836L765.2626444906139 419.1096855545836Q765.2626444906139 439.1936195719045 748.6559289001724 448.03654574371L748.6559289001724 448.03654574371Q762.474874544926 453.2223973631078 768.2002945409085 461.94541945122774Q773.8957385159697 470.6984175602691 773.8957385159697 484.72719535147235L773.8957385159697 484.72719535147235Q773.8957385159697 504.3614890549726 762.0252342311054 515.6024969004881Q750.1547299462411 526.813528725082 726.4137213765125 526.813528725082L726.4137213765125 526.813528725082L682.6187548103844 526.813528725082L682.6187548103844 382.6288680932709L709.1475333258009 382.6288680932709Q721.887342217385 382.6288680932709 727.732666297053 382.8686762606419L727.732666297053 382.8686762606419Q765.2626444906139 384.157645160261 765.2626444906139 419.1096855545836ZM713.4640803384788 398.1864229514643L703.3321852670542 398.1864229514643L703.3321852670542 441.3518930782435L724.4952560375446 441.3518930782435Q733.9676786486989 440.69242061797326 739.1535302680968 434.7571684755411Q744.3393818874945 428.82191633310896 744.3393818874945 420.72839068433785Q744.3393818874945 412.63486503556675 742.7206767577403 408.76795833670946Q741.101971627986 404.8710756169308 738.8237940379615 402.7128021105918Q736.5755924688585 400.5545286042529 732.0492133097309 399.4753918510834L732.0492133097309 399.4753918510834Q725.1247524768935 398.1864229514643 713.4640803384788 398.1864229514643L713.4640803384788 398.1864229514643ZM703.3321852670542 509.33750852792076L722.3369825312056 509.33750852792076Q752.9724759128503 509.33750852792076 752.9724759128503 483.85789074475247L752.9724759128503 483.85789074475247Q752.9724759128503 470.9082497067187 744.3393818874945 464.2235970412522L744.3393818874945 464.2235970412522Q737.4448970755784 457.3291122293361 719.729068711046 457.3291122293361L719.729068711046 457.3291122293361L703.3321852670542 457.3291122293361L703.3321852670542 509.33750852792076ZM817.7206811030192 448.9058503504299L817.7206811030192 526.813528725082L798.2962195459686 526.813528725082L798.2962195459686 417.6108845085149L814.4832708435108 417.6108845085149L816.6415443498497 433.7979358060571Q820.5384270696284 427.32311528704025 829.471281304198 421.3878631446081Q838.434111559689 415.45261100217596 849.884951551654 415.45261100217596L849.884951551654 415.45261100217596Q856.1499399242213 415.45261100217596 859.3873501837297 416.5317477553454L859.3873501837297 416.5317477553454L855.4904674639511 432.0593265926174Q853.5420261040617 431.8494944461678 849.884951551654 431.8494944461678L849.884951551654 431.8494944461678Q826.353775128375 431.8494944461678 817.7206811030192 448.9058503504299L817.7206811030192 448.9058503504299ZM913.763852135103 529.6312746916913L913.763852135103 529.6312746916913Q889.6031792724751 529.6312746916913 877.8226030503749 513.114487164014Q866.0720028491962 496.59769963633664 866.0720028491962 471.6576502297531Q866.0720028491962 446.7475768440909 878.5720035734093 431.1000939231334Q891.1019803185438 415.45261100217596 912.8945475283831 415.45261100217596L912.8945475283831 415.45261100217596Q931.2398723322642 415.45261100217596 940.8621750480255 425.704410157286Q950.4545017428654 435.9562093123961 950.4545017428654 452.7727570492872L950.4545017428654 452.7727570492872Q950.4545017428654 460.3267143214735 947.2170914833569 472.1972186063378L947.2170914833569 472.1972186063378L883.7578551928071 472.1972186063378Q884.2074955066278 490.54254341021897 891.7614527788141 501.993383402184Q899.3154100510005 513.444223394149 914.3034205116877 513.444223394149Q929.291430972375 513.444223394149 942.6907123242294 507.38906716803143L942.6907123242294 507.38906716803143L947.6367557762561 520.7583724989645Q932.1091769389842 529.6312746916913 913.763852135103 529.6312746916913ZM932.7686493992544 458.16844081513455L932.7686493992544 456.4598076226162Q932.7686493992544 444.79913548420154 928.0024620727559 438.11448281873504Q923.2662507671787 431.42983015326854 914.8429888882724 431.42983015326854Q906.4197270093662 431.42983015326854 900.9341151807547 434.33750418264185Q895.4185273312219 437.24517821201516 892.390949218163 441.7715573711427L892.390949218163 441.7715573711427Q887.2050975987652 450.4046513964986 885.9161286991462 457.7487765222353L885.9161286991462 457.7487765222353L932.7686493992544 458.16844081513455ZM1011.9652966735257 529.6312746916913L1011.9652966735257 529.6312746916913Q995.1187729157133 529.6312746916913 989.7230891498659 522.6168857960897Q984.3274053840184 515.6024969004881 984.3274053840184 498.546140996226L984.3274053840184 498.546140996226L984.3274053840184 432.92863119933725L962.9844784879999 431.8494944461678L964.9029438269679 419.1096855545836L984.7770456978391 417.6108845085149L986.7254870577285 391.71160243244736L1004.2015072548897 388.4741921729389L1004.2015072548897 417.6108845085149L1036.1259695361537 417.6108845085149L1034.2075041971857 432.92863119933725L1003.9916751084402 432.92863119933725L1003.9916751084402 500.4945823561153Q1003.9916751084402 505.02096151524285 1004.2914353176538 507.26916308434596Q1004.621171547789 509.5473406743704 1006.6895169913639 511.37587795057425Q1008.7278864140173 513.2044152267781 1015.6223712259334 513.2044152267781Q1022.546832058771 513.2044152267781 1029.441316870687 510.8363095739895L1029.441316870687 510.8363095739895L1033.128367444016 525.3147276790133Q1022.9664963516702 529.6312746916913 1011.9652966735257 529.6312746916913ZM1091.8214164080673 529.6312746916913L1091.8214164080673 529.6312746916913Q1074.9748926502548 529.6312746916913 1069.5792088844075 522.6168857960897Q1064.18352511856 515.6024969004881 1064.18352511856 498.546140996226L1064.18352511856 498.546140996226L1064.18352511856 432.92863119933725L1042.8405982225415 431.8494944461678L1044.7590635615095 419.1096855545836L1064.6331654323808 417.6108845085149L1066.5816067922701 391.71160243244736L1084.0576269894314 388.4741921729389L1084.0576269894314 417.6108845085149L1115.982089270695 417.6108845085149L1114.0636239317273 432.92863119933725L1083.8477948429818 432.92863119933725L1083.8477948429818 500.4945823561153Q1083.8477948429818 505.02096151524285 1084.1475550521955 507.26916308434596Q1084.4772912823305 509.5473406743704 1086.5456367259053 511.37587795057425Q1088.584006148559 513.2044152267781 1095.478490960475 513.2044152267781Q1102.4029517933125 513.2044152267781 1109.2974366052285 510.8363095739895L1109.2974366052285 510.8363095739895L1112.9844871785576 525.3147276790133Q1102.8226160862118 529.6312746916913 1091.8214164080673 529.6312746916913ZM1261.6655509485752 489.16364644783573Q1261.6655509485752 506.7295947077612 1249.1655502243618 518.1804346997262Q1236.6355734792273 529.6312746916913 1216.131975169007 529.6312746916913L1216.131975169007 529.6312746916913Q1205.1307754908628 529.6312746916913 1192.7207028294138 527.2331930179813Q1180.3106301679647 524.8650873651927 1172.7566728957784 521.208012812785L1172.7566728957784 521.208012812785L1178.3621888080754 502.8626880089039Q1199.5252595785657 511.28594988781015 1213.554037369769 511.28594988781015Q1227.5828151609724 511.28594988781015 1234.687132119338 505.110889578007Q1241.8214250986252 498.9658052891252 1241.8214250986252 489.4634066570495Q1241.8214250986252 479.9909840458952 1234.0576356799893 473.2763553595073Q1226.2938462613533 466.5917026940408 1213.883773599904 460.44661840515903Q1201.4737009384553 454.30153411627725 1197.157153925777 451.6936202961177Q1192.8406069130992 449.11568249687946 1187.2051149798808 443.92983087748166L1187.2051149798808 443.92983087748166Q1176.413747448186 434.667240412777 1176.413747448186 417.1612441946943Q1176.413747448186 399.685223997533 1188.733892046871 389.76316107255803Q1201.0240606246346 379.84109814758307 1218.829817051931 379.84109814758307Q1236.6355734792273 379.84109814758307 1255.4305385969292 386.73558295949925L1255.4305385969292 386.73558295949925L1249.7950466637108 404.0017710102109Q1233.398163219719 398.1864229514643 1220.7782584118204 398.1864229514643Q1208.1583536039216 398.1864229514643 1202.2231014614895 403.2523704871765Q1196.2878493190574 408.31831802288883 1196.2878493190574 416.5317477553454Q1196.2878493190574 424.71520146688067 1203.1823341309735 430.4406214628632Q1210.106794963811 436.1660414588457 1221.317826788405 442.10129360127786Q1232.528858612999 448.03654574371 1237.8346143160825 451.48378814966804Q1243.1103939982443 454.93103055562614 1249.3753823708116 460.3267143214735L1249.3753823708116 460.3267143214735Q1261.6655509485752 471.5677221669889 1261.6655509485752 489.16364644783573ZM1319.0996070339286 529.6312746916913L1319.0996070339286 529.6312746916913Q1302.253083276116 529.6312746916913 1296.8573995102686 522.6168857960897Q1291.4617157444213 515.6024969004881 1291.4617157444213 498.546140996226L1291.4617157444213 498.546140996226L1291.4617157444213 432.92863119933725L1270.0888128274812 431.8494944461678L1272.0372541873705 419.1096855545836L1291.8813800373205 417.6108845085149L1293.82982139721 391.71160243244736L1311.3058415943713 388.4741921729389L1311.3058415943713 417.6108845085149L1343.2602798965565 417.6108845085149L1341.3118385366672 432.92863119933725L1311.0960094479217 432.92863119933725L1311.0960094479217 500.4945823561153Q1311.0960094479217 505.02096151524285 1311.4257456780567 507.26916308434596Q1311.7554819081918 509.5473406743704 1313.7938513308452 511.37587795057425Q1315.86219677442 513.2044152267781 1322.7566815863363 513.2044152267781Q1329.6511663982524 513.2044152267781 1336.5756272310898 510.8363095739895L1336.5756272310898 510.8363095739895L1340.2327017834975 525.3147276790133Q1330.100806712073 529.6312746916913 1319.0996070339286 529.6312746916913ZM1384.2674765169966 529.6312746916913L1384.2674765169966 529.6312746916913Q1370.2386987257935 529.6312746916913 1361.9353409305727 521.4178449592347Q1353.631983135352 513.2044152267781 1353.631983135352 499.41544560294585L1353.631983135352 499.41544560294585Q1353.631983135352 490.33271126376934 1357.4988898342092 484.0677228912021Q1361.3957725539879 477.83271053955616 1367.660760926555 474.8051324264974L1367.660760926555 474.8051324264974Q1378.8717927511493 469.40944866065 1391.1619613289129 469.40944866065Q1403.4821059275976 469.40944866065 1414.063641312843 470.48858541381946L1414.063641312843 470.48858541381946L1414.063641312843 453.642061656007Q1414.063641312843 441.1420609317939 1409.8370223629292 436.4957776889808Q1405.6403794339367 431.8494944461678 1393.7698751490723 431.8494944461678Q1381.899370864208 431.8494944461678 1365.5024874202163 437.6648425049144L1365.5024874202163 437.6648425049144L1360.9461322401673 424.0857050275318Q1367.2111206127345 420.1888223077531 1377.4629197678446 417.82071665496454Q1387.7147189229547 415.45261100217596 1395.268676195141 415.45261100217596L1395.268676195141 415.45261100217596Q1416.2219148191818 415.45261100217596 1424.8550088445377 424.50536932043104Q1433.4881028698935 433.5881036596075 1433.4881028698935 454.93103055562614L1433.4881028698935 454.93103055562614L1433.4881028698935 507.38906716803143Q1433.4881028698935 514.9430244402178 1438.6439784683698 514.9430244402178L1438.6439784683698 514.9430244402178Q1442.1211968952493 514.9430244402178 1448.1463771004458 512.9945830803284L1448.1463771004458 512.9945830803284L1451.383787359954 525.0749195116424Q1444.0396622342173 529.841106838141 1432.408966116724 529.841106838141Q1420.7482939783092 529.841106838141 1415.5624423589115 518.8399071599965L1415.5624423589115 518.8399071599965Q1410.8262310533344 523.366286319124 1402.2830650907426 526.483792494947Q1393.7698751490723 529.6312746916913 1384.2674765169966 529.6312746916913ZM1388.3741913832248 514.2835519799476L1388.3741913832248 514.2835519799476Q1401.9533288606074 514.2835519799476 1414.063641312843 506.5197625613116L1414.063641312843 506.5197625613116L1414.063641312843 481.4897850919639Q1408.877789693445 480.62048048524406 1397.2171175550304 480.62048048524406L1397.2171175550304 480.62048048524406Q1371.9773079392332 480.62048048524406 1371.7374997718623 497.46700424305646L1371.7374997718623 497.46700424305646Q1371.7374997718623 514.2835519799476 1388.3741913832248 514.2835519799476ZM1485.496499168478 448.9058503504299L1485.496499168478 526.813528725082L1466.0720376114275 526.813528725082L1466.0720376114275 417.6108845085149L1482.25908890897 417.6108845085149L1484.4173624153088 433.7979358060571Q1488.284269114166 427.32311528704025 1497.247099369657 421.3878631446081Q1506.2099296251479 415.45261100217596 1517.660769617113 415.45261100217596L1517.660769617113 415.45261100217596Q1523.895781968759 415.45261100217596 1527.1331922282673 416.5317477553454L1527.1331922282673 416.5317477553454L1523.26628552941 432.0593265926174Q1521.3178441695209 431.8494944461678 1517.660769617113 431.8494944461678L1517.660769617113 431.8494944461678Q1494.1295931938341 431.8494944461678 1485.496499168478 448.9058503504299L1485.496499168478 448.9058503504299ZM1563.4041775431303 448.9058503504299L1563.4041775431303 526.813528725082L1543.9797159860798 526.813528725082L1543.9797159860798 417.6108845085149L1560.1667672836222 417.6108845085149L1562.3250407899611 433.7979358060571Q1566.2219235097398 427.32311528704025 1575.1547777443093 421.3878631446081Q1584.1176079998002 415.45261100217596 1595.5684479917652 415.45261100217596L1595.5684479917652 415.45261100217596Q1601.8334363643323 415.45261100217596 1605.070846623841 416.5317477553454L1605.070846623841 416.5317477553454L1601.1739639040622 432.0593265926174Q1599.225522544173 431.8494944461678 1595.5684479917652 431.8494944461678L1595.5684479917652 431.8494944461678Q1572.0372715684862 431.8494944461678 1563.4041775431303 448.9058503504299L1563.4041775431303 448.9058503504299ZM1659.4473485752144 529.6312746916913L1659.4473485752144 529.6312746916913Q1635.2866757125864 529.6312746916913 1623.5060994904863 513.114487164014Q1611.7554992893074 496.59769963633664 1611.7554992893074 471.6576502297531Q1611.7554992893074 446.7475768440909 1624.2555000135205 431.1000939231334Q1636.7854767586552 415.45261100217596 1658.5780439684943 415.45261100217596L1658.5780439684943 415.45261100217596Q1676.9233687723756 415.45261100217596 1686.5456714881368 425.704410157286Q1696.1379981829766 435.9562093123961 1696.1379981829766 452.7727570492872L1696.1379981829766 452.7727570492872Q1696.1379981829766 460.3267143214735 1692.900587923468 472.1972186063378L1692.900587923468 472.1972186063378L1629.4413516329184 472.1972186063378Q1629.890991946739 490.54254341021897 1637.4449492189253 501.993383402184Q1644.9989064911117 513.444223394149 1659.986916951799 513.444223394149Q1674.9749274124863 513.444223394149 1688.3742087643407 507.38906716803143L1688.3742087643407 507.38906716803143L1693.3202522163674 520.7583724989645Q1677.7926733790953 529.6312746916913 1659.4473485752144 529.6312746916913ZM1678.4521458393656 458.16844081513455L1678.4521458393656 456.4598076226162Q1678.4521458393656 444.79913548420154 1673.685958512867 438.11448281873504Q1668.94974720729 431.42983015326854 1660.5264853283836 431.42983015326854Q1652.1032234494776 431.42983015326854 1646.617611620866 434.33750418264185Q1641.102023771333 437.24517821201516 1638.0744456582743 441.7715573711427L1638.0744456582743 441.7715573711427Q1632.8885940388766 450.4046513964986 1631.5996251392573 457.7487765222353L1631.5996251392573 457.7487765222353L1678.4521458393656 458.16844081513455ZM1757.6487931136369 529.6312746916913L1757.6487931136369 529.6312746916913Q1740.8022693558244 529.6312746916913 1735.4065855899773 522.6168857960897Q1730.0109018241299 515.6024969004881 1730.0109018241299 498.546140996226L1730.0109018241299 498.546140996226L1730.0109018241299 432.92863119933725L1708.6679749281113 431.8494944461678L1710.5864402670793 419.1096855545836L1730.4605421379504 417.6108845085149L1732.4089834978397 391.71160243244736L1749.885003695001 388.4741921729389L1749.885003695001 417.6108845085149L1781.8094659762648 417.6108845085149L1779.8910006372969 432.92863119933725L1749.6751715485514 432.92863119933725L1749.6751715485514 500.4945823561153Q1749.6751715485514 505.02096151524285 1749.974931757765 507.26916308434596Q1750.3046679879 509.5473406743704 1752.3730134314753 511.37587795057425Q1754.4113828541288 513.2044152267781 1761.3058676660446 513.2044152267781Q1768.2303284988823 513.2044152267781 1775.1248133107981 510.8363095739895L1775.1248133107981 510.8363095739895L1778.8118638841272 525.3147276790133Q1768.6499927917814 529.6312746916913 1757.6487931136369 529.6312746916913ZM1837.5049128481785 529.6312746916913L1837.5049128481785 529.6312746916913Q1820.658389090366 529.6312746916913 1815.262705324519 522.6168857960897Q1809.8670215586715 515.6024969004881 1809.8670215586715 498.546140996226L1809.8670215586715 498.546140996226L1809.8670215586715 432.92863119933725L1788.524094662653 431.8494944461678L1790.4425600016204 419.1096855545836L1810.316661872492 417.6108845085149L1812.2651032323813 391.71160243244736L1829.7411234295425 388.4741921729389L1829.7411234295425 417.6108845085149L1861.6655857108065 417.6108845085149L1859.7471203718385 432.92863119933725L1829.531291283093 432.92863119933725L1829.531291283093 500.4945823561153Q1829.531291283093 505.02096151524285 1829.8310514923066 507.26916308434596Q1830.1607877224417 509.5473406743704 1832.2291331660165 511.37587795057425Q1834.26750258867 513.2044152267781 1841.1619874005862 513.2044152267781Q1848.0864482334239 513.2044152267781 1854.9809330453402 510.8363095739895L1854.9809330453402 510.8363095739895L1858.6679836186688 525.3147276790133Q1848.506112526323 529.6312746916913 1837.5049128481785 529.6312746916913Z " fill="#0a192f" transform="matrix(0.47000924106598846,0,0,0.47000924106598846,0,86.22047984336848)"/></g></svg>